<?xml version="1.0" encoding="UTF-8" standalone="no"?><svg xmlns="http://www.w3.org/2000/svg" xmlns:xlink="http://www.w3.org/1999/xlink" contentScriptType="application/ecmascript" contentStyleType="text/css" height="496px" preserveAspectRatio="none" style="width:535px;height:496px;background:#FFFFFF;" version="1.1" viewBox="0 0 535 496" width="535px" zoomAndPan="magnify"><defs><filter height="300%" id="f1wz54v37y4rzi" width="300%" x="-1" y="-1"><feGaussianBlur result="blurOut" stdDeviation="2.0"/><feColorMatrix in="blurOut" result="blurOut2" type="matrix" values="0 0 0 0 0 0 0 0 0 0 0 0 0 0 0 0 0 0 .4 0"/><feOffset dx="4.0" dy="4.0" in="blurOut2" result="blurOut3"/><feBlend in="SourceGraphic" in2="blurOut3" mode="normal"/></filter></defs><g><!--MD5=[aa8f7b917213fcc1c2766e2d59b49067]
cluster java.lang--><polygon fill="#FFFFFF" filter="url(#f1wz54v37y4rzi)" points="412.5,398,492.5,398,499.5,420.2969,502.5,420.2969,502.5,489,412.5,489,412.5,398" style="stroke:#000000;stroke-width:1.5;"/><line style="stroke:#000000;stroke-width:1.5;" x1="412.5" x2="499.5" y1="420.2969" y2="420.2969"/><text fill="#000000" font-family="sans-serif" font-size="14" font-weight="bold" lengthAdjust="spacing" textLength="74" x="416.5" y="412.9951">java.lang</text><!--MD5=[7db3c59d38ae5b37b484eb2df9368145]
cluster java.util--><polygon fill="#FFFFFF" filter="url(#f1wz54v37y4rzi)" points="126.5,398,199.5,398,206.5,420.2969,216.5,420.2969,216.5,489,126.5,489,126.5,398" style="stroke:#000000;stroke-width:1.5;"/><line style="stroke:#000000;stroke-width:1.5;" x1="126.5" x2="206.5" y1="420.2969" y2="420.2969"/><text fill="#000000" font-family="sans-serif" font-size="14" font-weight="bold" lengthAdjust="spacing" textLength="67" x="130.5" y="412.9951">java.util</text><!--MD5=[9df70cf33be424c1b8543b3f439cae89]
class String--><rect codeLine="36" fill="#FEFECE" filter="url(#f1wz54v37y4rzi)" height="39.9688" id="String" style="stroke:#A80036;stroke-width:1.5;" width="41" x="437" y="433"/><text fill="#000000" font-family="sans-serif" font-size="12" lengthAdjust="spacing" textLength="35" x="440" y="449.1387">String</text><line style="stroke:#A80036;stroke-width:1.5;" x1="438" x2="477" y1="456.9688" y2="456.9688"/><line style="stroke:#A80036;stroke-width:1.5;" x1="438" x2="477" y1="464.9688" y2="464.9688"/><!--MD5=[ab8871ed637f40707b866ba6597734bc]
class ArrayList--><rect codeLine="41" fill="#FEFECE" filter="url(#f1wz54v37y4rzi)" height="39.9688" id="ArrayList" style="stroke:#A80036;stroke-width:1.5;" width="58" x="142.5" y="433"/><text fill="#000000" font-family="sans-serif" font-size="12" lengthAdjust="spacing" textLength="52" x="145.5" y="449.1387">ArrayList</text><line style="stroke:#A80036;stroke-width:1.5;" x1="143.5" x2="199.5" y1="456.9688" y2="456.9688"/><line style="stroke:#A80036;stroke-width:1.5;" x1="143.5" x2="199.5" y1="464.9688" y2="464.9688"/><!--MD5=[1681db427d861294dc4bf59cd2c200d7]
class Library--><rect codeLine="4" fill="#FEFECE" filter="url(#f1wz54v37y4rzi)" height="65.5781" id="Library" style="stroke:#A80036;stroke-width:1.5;" width="155" x="7" y="279"/><text fill="#000000" font-family="sans-serif" font-size="12" lengthAdjust="spacing" textLength="41" x="64" y="295.1387">Library</text><line style="stroke:#A80036;stroke-width:1.5;" x1="8" x2="161" y1="302.9688" y2="302.9688"/><text fill="#000000" font-family="sans-serif" font-size="11" lengthAdjust="spacing" textLength="143" x="13" y="317.1792">-books : ArrayList&lt;Book&gt;</text><line style="stroke:#A80036;stroke-width:1.5;" x1="8" x2="161" y1="323.7734" y2="323.7734"/><text fill="#000000" font-family="sans-serif" font-size="11" lengthAdjust="spacing" textLength="132" x="13" y="337.9839">+addBook(book : Book)</text><!--MD5=[84e3a5e42879fb3231104d3c8e592439]
class Book--><rect codeLine="9" fill="#FEFECE" filter="url(#f1wz54v37y4rzi)" height="65.5781" id="Book" style="stroke:#A80036;stroke-width:1.5;" width="161" x="197" y="279"/><text fill="#000000" font-family="sans-serif" font-size="12" lengthAdjust="spacing" textLength="31" x="262" y="295.1387">Book</text><line style="stroke:#A80036;stroke-width:1.5;" x1="198" x2="357" y1="302.9688" y2="302.9688"/><text fill="#000000" font-family="sans-serif" font-size="11" lengthAdjust="spacing" textLength="149" x="203" y="317.1792">-pages : ArrayList&lt;Paper&gt;</text><line style="stroke:#A80036;stroke-width:1.5;" x1="198" x2="357" y1="323.7734" y2="323.7734"/><text fill="#000000" font-family="sans-serif" font-size="11" lengthAdjust="spacing" textLength="94" x="203" y="337.9839">+Book(size : int)</text><!--MD5=[09ce52be0ee7de43c61b6e2d59bf108b]
class Person--><rect codeLine="14" fill="#FEFECE" filter="url(#f1wz54v37y4rzi)" height="52.7734" id="Person" style="stroke:#A80036;stroke-width:1.5;" width="96" x="291.5" y="13.5"/><text fill="#000000" font-family="sans-serif" font-size="12" lengthAdjust="spacing" textLength="41" x="319" y="29.6387">Person</text><line style="stroke:#A80036;stroke-width:1.5;" x1="292.5" x2="386.5" y1="37.4688" y2="37.4688"/><text fill="#000000" font-family="sans-serif" font-size="11" lengthAdjust="spacing" textLength="84" x="297.5" y="51.6792">#name : string</text><line style="stroke:#A80036;stroke-width:1.5;" x1="292.5" x2="386.5" y1="58.2734" y2="58.2734"/><!--MD5=[341a0cf90b207ac5091f779c51e7b171]
class Patron--><rect codeLine="18" fill="#FEFECE" filter="url(#f1wz54v37y4rzi)" height="65.5781" id="Patron" style="stroke:#A80036;stroke-width:1.5;" width="177" x="79" y="7"/><text fill="#000000" font-family="sans-serif" font-size="12" lengthAdjust="spacing" textLength="37" x="149" y="23.1387">Patron</text><line style="stroke:#A80036;stroke-width:1.5;" x1="80" x2="255" y1="30.9688" y2="30.9688"/><text fill="#000000" font-family="sans-serif" font-size="11" lengthAdjust="spacing" textLength="165" x="85" y="45.1792">-libraries : ArrayList&lt;Library&gt;</text><line style="stroke:#A80036;stroke-width:1.5;" x1="80" x2="255" y1="51.7734" y2="51.7734"/><text fill="#000000" font-family="sans-serif" font-size="11" lengthAdjust="spacing" textLength="160" x="85" y="65.9839">+addLibrary(library : Library)</text><!--MD5=[75ec85fc313fa75958b62cd1fc2ce9f6]
class Checkout--><rect codeLine="23" fill="#FEFECE" filter="url(#f1wz54v37y4rzi)" height="78.3828" id="Checkout" style="stroke:#A80036;stroke-width:1.5;" width="237" x="280" y="134"/><text fill="#000000" font-family="sans-serif" font-size="12" lengthAdjust="spacing" textLength="56" x="370.5" y="150.1387">Checkout</text><line style="stroke:#A80036;stroke-width:1.5;" x1="281" x2="516" y1="157.9688" y2="157.9688"/><text fill="#000000" font-family="sans-serif" font-size="11" lengthAdjust="spacing" textLength="86" x="286" y="172.1792">-patron : Patron</text><text fill="#000000" font-family="sans-serif" font-size="11" lengthAdjust="spacing" textLength="78" x="286" y="184.9839">-book   : Book</text><line style="stroke:#A80036;stroke-width:1.5;" x1="281" x2="516" y1="191.5781" y2="191.5781"/><text fill="#000000" font-family="sans-serif" font-size="11" lengthAdjust="spacing" textLength="225" x="286" y="205.7886">+Checkout(book : Book, patron : Patron)</text><!--MD5=[574ae5e535ab9d722dfd5b5dd8886d51]
class Paper--><rect codeLine="29" fill="#FEFECE" filter="url(#f1wz54v37y4rzi)" height="78.3828" id="Paper" style="stroke:#A80036;stroke-width:1.5;" width="128" x="393.5" y="273"/><text fill="#000000" font-family="sans-serif" font-size="12" lengthAdjust="spacing" textLength="34" x="440.5" y="289.1387">Paper</text><line style="stroke:#A80036;stroke-width:1.5;" x1="394.5" x2="520.5" y1="296.9688" y2="296.9688"/><text fill="#000000" font-family="sans-serif" font-size="11" lengthAdjust="spacing" textLength="71" x="399.5" y="311.1792">-text : String</text><line style="stroke:#A80036;stroke-width:1.5;" x1="394.5" x2="520.5" y1="317.7734" y2="317.7734"/><text fill="#000000" font-family="sans-serif" font-size="11" lengthAdjust="spacing" textLength="49" x="399.5" y="331.9839">+Paper()</text><text fill="#000000" font-family="sans-serif" font-size="11" lengthAdjust="spacing" textLength="116" x="399.5" y="344.7886">+Paper(text : String)</text><ellipse cx="242.5" cy="173" fill="#000000" rx="2" ry="2" style="stroke:none;stroke-width:1.0;"/><!--MD5=[082c106826644d1cecbbe446ff6e353c]
link Patron to Library--><path codeLine="45" d="M157.653,73.033 C142.22,123.238 112.407,220.218 96.0076,273.566 " fill="none" id="Patron-to-Library" style="stroke:#A80036;stroke-width:1.0;"/><polygon fill="#A80036" points="94.4634,278.589,100.9325,271.1627,95.9333,273.81,93.286,268.8108,94.4634,278.589" style="stroke:#A80036;stroke-width:1.0;"/><polygon fill="#000000" points="142.0308,177.8457,147.4978,170.0635,141.8794,168.3363,142.0308,177.8457" style="stroke:#000000;stroke-width:1.0;"/><text fill="#000000" font-family="sans-serif" font-size="13" lengthAdjust="spacing" textLength="50" x="152.5" y="177.5669">belongs</text><text fill="#000000" font-family="sans-serif" font-size="13" lengthAdjust="spacing" textLength="23" x="130.7171" y="92.6243">1..*</text><text fill="#000000" font-family="sans-serif" font-size="13" lengthAdjust="spacing" textLength="23" x="71.1705" y="267.9101">1..*</text><!--MD5=[9099283ef0f4e7197a7c0596c3fa4589]
link Patron to Person--><path codeLine="46" d="M256.188,40 C261.222,40 266.256,40 271.29,40 " fill="none" id="Patron-to-Person" style="stroke:#A80036;stroke-width:1.0;"/><polygon fill="none" points="271.335,33,291.335,40,271.335,47,271.335,33" style="stroke:#A80036;stroke-width:1.0;"/><!--MD5=[bfc189962c0086dc835feff1074393cd]
reverse link Library to Book--><path codeLine="47" d="M175.163,312 C182.391,312 189.619,312 196.847,312 " fill="none" id="Library-backto-Book" style="stroke:#A80036;stroke-width:1.0;"/><polygon fill="none" points="162.152,312,168.152,316,174.152,312,168.152,308,162.152,312" style="stroke:#A80036;stroke-width:1.0;"/><!--MD5=[f1e803738f5bad1b16da9743b4b96599]
reverse link Book to Paper--><path codeLine="48" d="M371.27,312 C378.638,312 386.006,312 393.374,312 " fill="none" id="Book-backto-Paper" style="stroke:#A80036;stroke-width:1.0;"/><polygon fill="#A80036" points="358.008,312,364.008,316,370.008,312,364.008,308,358.008,312" style="stroke:#A80036;stroke-width:1.0;"/><!--MD5=[60626b7b464c23275e961824e8d1942d]
link Patron to apoint261034--><path d="M185.847,73.046 C206.316,108.799 237.192,162.729 241.891,170.937 " fill="none" id="Patron-apoint261034" style="stroke:#A80036;stroke-width:1.0;"/><!--MD5=[f99134f1091ad86bd1f657d569ba4b3e]
link apoint261034 to Book--><path d="M242.893,175.539 C245.447,185.534 259.87,241.99 269.272,278.793 " fill="none" id="apoint261034-Book" style="stroke:#A80036;stroke-width:1.0;"/><!--MD5=[ac271b13e6cafaf4dfc3941577fe65b1]
link apoint261034 to Checkout--><path d="M244.633,173 C256.353,173 268.074,173 279.794,173 " fill="none" id="apoint261034-Checkout" style="stroke:#A80036;stroke-width:1.0;stroke-dasharray:7.0,7.0;"/><!--MD5=[da64e7885391122b06711026a71f514d]
link Book to ArrayList--><path codeLine="50" d="M252.915,345.239 C233.454,370.758 206.737,405.7925 189.3,428.6591 " fill="none" id="Book-to-ArrayList" style="stroke:#A80036;stroke-width:1.0;stroke-dasharray:7.0,7.0;"/><polygon fill="#A80036" points="186.155,432.7821,194.7933,428.0514,189.187,428.8063,188.4321,423.2001,186.155,432.7821" style="stroke:#A80036;stroke-width:1.0;"/><!--MD5=[8d8c888e72540a6252f9f3de1192649d]
link Library to ArrayList--><path codeLine="51" d="M104.6782,345.239 C120.584,370.652 142.397,405.5019 156.712,428.3738 " fill="none" id="Library-to-ArrayList" style="stroke:#A80036;stroke-width:1.0;stroke-dasharray:7.0,7.0;"/><polygon fill="#A80036" points="159.472,432.7821,158.088,423.031,156.8194,428.5437,151.3066,427.2751,159.472,432.7821" style="stroke:#A80036;stroke-width:1.0;"/><!--MD5=[54cd35d1694be96b085b22d9b69d18c0]
reverse link Paper to String--><path codeLine="52" d="M457.5,364.593 C457.5,388.467 457.5,415.3663 457.5,432.9403 " fill="none" id="Paper-backto-String" style="stroke:#A80036;stroke-width:1.0;"/><polygon fill="none" points="457.5,351.35,453.5,357.35,457.5,363.35,461.5,357.35,457.5,351.35" style="stroke:#A80036;stroke-width:1.0;"/><!--MD5=[1280bc4a9e9ace7ccdfef17c501ea5bd]
@startuml
skinparam classAttributeIconSize 0
hide circle

class Library {
 - books : ArrayList<Book>  
 + addBook(book : Book)
}

class Book {
 - pages : ArrayList<Paper>  
 + Book(size : int)
}

Class Person {
 # name : string
}

class Patron {
 - libraries : ArrayList<Library>  
 + addLibrary(library : Library)
}

class Checkout {
  - patron : Patron
  - book   : Book
  + Checkout(book : Book, patron : Patron)
}

class Paper {
 -text : String
 +Paper()
 +Paper(text : String)
}

package java.lang {
  class String {
  }
}

package java.util {
  class ArrayList {  
  }
}

Patron "1..*" - -> "1..*" Library : belongs >
Patron -|> Person
Library o- Book
Book *- Paper
(Patron, Book) .. Checkout
Book ..> ArrayList 
Library ..> ArrayList
Paper o- - String
@enduml

PlantUML version 1.2022.1(Tue Feb 01 18:19:58 UTC 2022)
(GPL source distribution)
Java Runtime: Java(TM) SE Runtime Environment
JVM: Java HotSpot(TM) 64-Bit Server VM
Default Encoding: UTF-8
Language: en
Country: US
--></g></svg>